<svg width="1024" height="1024" viewBox="0 0 1024 1024" fill="none" xmlns="http://www.w3.org/2000/svg">
<g clip-path="url(#clip0_2028_525)">
<rect width="1024" height="1024" fill="url(#paint0_linear_2028_525)"/>
<g clip-path="url(#clip1_2028_525)">
<path d="M-97 -97H1121V1121H-97V-97Z" fill="white"/>
<path d="M677.981 398.685L676.488 396.76L676.714 396C680.442 396.542 683.254 398.429 686.75 399.327C748.522 415.218 814.598 438.953 854.111 492.105C873.064 517.596 884.271 547.489 889.182 578.701C892.862 602.107 892.975 626.487 892.999 650.137C893.029 674.006 892.464 697.899 889.188 721.56C881.411 777.562 854.146 827.095 808.272 860.838C778.201 882.954 746.59 894.972 709.961 902.119C677.66 908.422 646.542 907.964 613.742 908L520.448 907.887L417.669 907.923C386.478 907.905 353.856 908.606 323.123 903.895C263.903 894.824 208.922 868.121 172.91 819.069C128.261 758.256 132.126 698.083 132.059 627.218L268.458 627.153C291.933 627.182 319.817 627.966 342.712 627.063C344.306 629.541 345.974 632.06 347.465 634.596C347.297 660.83 345.114 696.45 364.918 716.41C387.219 738.883 422.488 733.661 451.377 734.624C453.993 734.707 467.223 734.594 468.981 734.321C454.126 723.438 436.912 713.042 421.171 701.588C429.49 705.675 436.464 709.305 445.192 712.626C486.085 728.499 531.215 729.741 572.921 716.143C586.084 711.919 627.101 694.067 633.153 682.258C638.7 681.259 649.116 670.697 652.095 666.081C656.363 665.024 664.681 654.925 667.487 651.515C687.743 626.642 702.255 597.604 709.972 566.481C721.488 519.628 716.072 470.219 694.669 426.974C689.199 415.877 684.312 409.025 677.981 398.685Z" fill="#C8392B"/>
<path d="M366.686 81.4082C372.582 81.0458 379.411 81.0696 385.33 81.0518L551.362 81.0268L615.318 81C670.427 81.0161 714.551 82.7615 765.028 108.347C784.348 117.978 802.007 130.638 817.326 145.846C874.007 202.573 870.994 265.285 870.964 338.453L752.013 338.42C722.565 338.425 692.206 338.831 662.818 338.262C662.729 322.282 663.515 305.902 658.549 290.557C645.111 249.066 600.505 251.278 565.419 251.305L517.116 251.318L459.756 251.288C426.124 251.27 379.833 247.414 362.381 283.533C355.02 298.766 354.876 321.651 359.938 337.624C363.79 349.781 372.123 356.635 383.186 362.031C388.24 358.09 399.188 349.07 404.615 346.557L405.832 347.173C407.145 349.314 406.918 348.202 406.663 350.599C403.854 354.824 396.515 357.546 391.466 360.56C393.591 362.516 395.826 364.908 397.867 366.993C402.905 364.982 412.634 360.744 417.595 360.309C418.902 360.783 420.243 362.036 420.813 363.266C423.706 369.515 407.807 372.613 403.704 373.929C406.574 377.701 409.406 381.501 412.199 385.33C416.26 384.361 429.224 382.196 432.919 382.564C435.525 384.398 436.74 387.55 435.151 390.469C430.975 393.523 422.496 393.321 417.055 393.582C419.667 398.705 422.897 404.264 425.701 409.341C430.754 409.35 443.503 408.463 446.979 411.169C448.235 412.163 449.009 413.644 449.106 415.243C449.214 417.132 448.704 417.45 447.756 418.694C443.675 420.897 434.94 419.278 429.489 419.075L436.527 437.808C442.096 438.48 465.423 439.503 457.438 449.883C453.036 452.06 444.534 449.073 439.283 447.848C440.742 454.64 442.264 461.419 443.849 468.183C448.247 469.683 460.321 473.469 463.517 475.921C465.008 478.725 465.247 481.815 462.687 483.989C458.137 485.026 449.947 480.68 445.279 478.747C445.828 485.837 446.29 492.934 446.666 500.034C451.11 502.265 474.622 511.376 463.462 518.844C459.908 519.576 452.539 513.643 447.819 511.471L447.046 511.12C446.836 518.208 446.505 525.295 446.052 532.371C450.335 535.441 461.076 542.088 463.402 545.945C463.812 548.599 463.299 552.538 460.465 553.478C455.763 552.699 449.016 546.569 445.009 543.416C443.854 550.58 442.214 556.87 441.433 564.297C445.603 568.29 465.228 582.858 452.811 587.636C449.744 587.297 441.674 578.163 438.641 575.336C436.212 582.114 434.346 588.684 432.334 595.593C435.667 599.383 454.617 618.337 440.946 619.527C438.83 619.015 438.374 618.045 436.985 616.331C434.128 612.707 431.253 609.399 428.228 605.917L419.648 624.794C423.231 630.132 429.377 638.01 431.074 644.045C431.543 645.711 428.915 649.097 426.322 649.293C422.257 647.383 417.498 638.998 414.494 634.833C410.828 640.266 407.6 645.538 404.19 651.126L414.048 670.722C413.713 671.27 413.374 671.817 413.029 672.359C411.324 675.031 411.2 675.406 408.404 676.019C404.49 674.721 401.662 666.003 397.95 660.79L386.579 674.959C387.527 676.78 387.661 676.935 388.207 679C386.076 678.423 376.207 669.258 374.17 667.182L374.714 666.711C376.385 667.063 377.632 667.42 379.25 667.896C382.497 666.592 388.16 657.797 390.483 654.548C382.047 653.435 366.511 654.012 376.134 642.295C382.13 643.759 389.802 645.009 395.948 646.092C399.715 640.331 402.436 636.005 405.749 629.941C397.071 628.816 382.163 632.006 390.537 619.11C397.422 619.468 404.313 619.682 411.206 619.747C414.429 613.517 416.524 608.851 419.136 602.448C413.62 602.353 403.054 604.989 399.756 600.55C399.528 598.116 401.597 593.486 404.06 593.23C410.077 592.605 417.143 592.385 423.172 591.992C425.9 585.429 427.523 579.299 429.327 572.491C424.038 573.717 403.517 581.394 411.159 567.29C411.846 566.023 428.835 562.744 431.824 561.994C433.221 554.573 434.314 549.343 435.341 541.791C430.825 543.731 420.557 549.259 416.253 546.73C414.323 543.368 415.304 539.44 418.863 537.917C424.59 535.459 430.718 533.204 436.489 530.877C437.111 524.212 437.412 517.523 437.388 510.829C432.545 513.358 425.41 518.249 420.364 518.333C417.094 516.791 417.103 511.626 418.865 510.329C424.132 506.449 431.254 503.033 437.041 499.897C436.996 493.294 436.142 486.775 435.425 480.208C431.221 483.047 422.02 491.677 417.482 488.287C416.54 486.14 416.571 485.924 416.355 483.542C417.142 480.431 430.258 471.854 434.165 468.818C432.831 462.678 431.367 456.568 429.775 450.49C426.19 453.825 418.119 463.407 413.188 461.201C408.931 454.75 415.482 451.379 419.53 447.026C421.778 444.61 424.644 442.189 427.086 439.909C425.498 434.321 422.938 428.408 420.75 422.975C417.57 426.549 410.608 436.899 405.976 436.54C400.146 430.914 406.444 426.007 409.976 421.536C412.169 418.761 414.498 416.045 416.753 413.315C414.585 408.629 411.475 403.323 408.78 398.932C406.244 402.66 400.397 414.727 395.68 413.851C390.676 408.634 393.617 406.541 397.002 401.308C399.265 397.808 401.594 394.383 403.816 390.849C401.631 386.968 399.037 383.566 396.094 380.244C392.64 384.718 390.056 391.212 386.124 395.155C385.2 396.08 384.176 395.552 383.178 395.239C378.011 389.68 386.822 378.937 390.295 373.59C388.229 371.148 386.45 369.337 384.217 367.091C380.552 371.213 378.209 377.014 374.133 380.074C371.364 382.153 371.579 379.045 368.181 378.447C364.919 379.758 362.513 382.917 360.256 385.622C332.015 419.465 314.331 461.562 311.545 505.657C310.675 519.428 311.587 532.186 312.785 545.802C273.508 531.96 241.271 518.713 209.986 490.318C167.312 451.588 149.58 396.979 147.697 340.643C145.34 270.121 146.109 204.71 197.764 149.963C242.732 102.302 302.863 83.6797 366.686 81.4082Z" fill="#C8392B"/>
<path d="M625.521 347.604C629.196 349.271 636.791 355.622 640.366 358.447C644.784 362.234 660.973 374.889 660.23 380.222C658.702 381.707 659.605 381.294 657.399 381.407C652.855 379.119 649.757 372.332 646.759 367.68L639.908 373.499C642.828 379.174 651.255 391.011 645.659 395.692C640.092 396.399 636.97 384.973 633.669 380.415C630.398 384.017 627.841 386.983 624.832 390.798C627.817 395.686 638.284 409.412 633.342 413.876C626.866 414.894 623.79 404.197 619.306 399.172C616.095 404.072 614.061 407.42 611.361 412.579C615.143 418.123 621.18 425.659 624.362 430.731C623.404 432.861 622.875 434.733 620.972 436.001C615.733 436.315 610.57 426.685 606.882 422.551C603.933 428.524 602.178 432.426 600.323 438.85L600.888 439.558C605.926 445.846 618.07 453.505 612.985 460.914C608.096 463.015 600.703 452.858 596.701 449.57C594.613 456.344 593.323 461.306 592.318 468.364C597.754 472.218 612.937 480.243 607.608 487.802C602.553 490.072 594.358 481.702 590.135 478.519C589.416 485.105 588.66 491.585 588.255 498.202C591.758 500.26 595.386 502.264 598.824 504.417C604.408 507.914 609.16 508.717 606.097 516.306C601.91 519.261 592.467 511.387 587.75 509.24C587.56 516.264 587.5 522.295 588.19 529.372C595.446 532.494 611.123 535.849 608.483 544.829C604.171 548.855 594.042 542.235 589.094 540.13C589.873 546.928 590.992 553.69 592.425 560.381C598.854 562.379 606.163 564.05 612.539 566.102C614.097 566.601 614.727 570.842 614.542 572.495C611.176 577.699 599.603 572.394 594.316 571.151C596.326 578.229 598.068 584.087 600.548 591.021C606.139 591.634 611.867 592.05 617.493 592.413C622.12 592.711 625.272 597.587 621.923 601.667C617.243 603.808 610.136 601.286 604.004 601.125C606.205 607.227 609.095 613.425 612.003 619.235C615.601 619.223 619.235 619.152 622.833 619.122C629.173 619.074 634.793 616.862 635.625 625.372C633.55 630.861 622.721 628.613 617.154 629.006C620.229 635.661 623.487 639.824 627.145 646.033C633.919 644.54 640.431 643.595 647.068 642.209C658.278 653.628 639.539 652.795 632.634 654.49C636.304 659.302 640.069 664.041 643.922 668.71C646.533 667.871 649.549 666.813 652.183 666.188C649.204 670.81 638.784 681.384 633.235 682.383C634.216 679.849 635.715 676.864 636.886 674.354C632.812 669.585 628.769 664.791 624.754 659.974C621.888 664.868 618.593 675.948 612.669 674.99C610.546 673.605 609.951 672.041 608.666 669.787C612.146 663.691 615.661 656.791 618.992 650.553L608.137 633.312C605.051 637.898 600.352 648.775 594.339 647.413C592.175 645.736 591.931 644.582 590.742 641.983C595.03 635.852 599.228 629.648 603.32 623.38C600.358 617.153 598.264 611.253 594.934 604.878C590.634 608.999 585.282 618.551 579.519 616.82C577.628 615.191 577.253 613.448 576.349 611.075C578.508 607.887 587.899 597.551 591.14 593.626C589.112 586.894 587.144 580.137 585.241 573.369C580.513 577.288 574.428 586.691 568.529 584.164C566.721 582.154 566.477 580.138 565.757 577.479C568.695 574.197 578.894 565.627 582.891 561.945C581.583 556.861 580.352 546.97 579.543 541.469C574.06 544.734 559.334 559.59 560.274 543.521C561.63 540.529 574.66 532.5 578.508 529.865C578.157 523.103 578.164 515.473 578.027 508.646C573.085 511.066 563.456 518.756 558.698 514.7C554.612 505.167 571.812 500.735 578.491 497.683C578.622 492.389 580.09 482.591 580.661 476.9C578.328 477.709 554.553 489.369 561.796 473.045C562.529 471.406 578.389 467.204 582.439 465.987C583.831 459.68 585.841 452.48 587.453 446.15C585.096 446.549 560.155 454.83 569.004 440.069C569.938 438.503 586.091 436.601 590.522 435.85C593.032 430.357 595.458 424.178 597.795 418.565C592.33 418.48 579.798 420.949 578.008 414.882C578.419 412.715 579.365 408.865 581.904 408.666C588.452 408.155 595.791 408.532 602.38 408.542C605.08 403.612 608.161 398.563 611.022 393.7C605.485 392.636 593.484 393.88 592.056 387.457C593.799 380.078 597.558 381.772 603.529 382.879C607.941 383.697 612.342 384.356 616.791 384.951C619.639 381.285 622.494 377.917 625.503 374.38C619.984 371.797 613.359 370.882 608.869 368.008C607.774 366.274 607.828 366.411 607.923 364.357C612.045 357.251 625.254 364.823 631.677 367.292C634.65 364.951 635.887 363.932 638.54 361.157C633.764 358.68 626.36 355.585 623.446 351.372C623.119 348.976 622.958 350.162 624.403 347.778L625.521 347.604Z" fill="#C8392B"/>
<path d="M661.576 405.402L662.617 404.504C679.947 408.742 699.575 392.512 713.628 404.505C713.628 404.505 730.117 426.682 734.85 434.137C795.332 529.417 765.013 661.393 667.519 720.35C621.857 748.198 582.394 751.622 516.781 745.299C485.503 741.129 461.343 731.807 434.873 709.32C419.301 697.897 401.501 683.841 385 671.818C393.72 676.109 401.031 679.918 410.18 683.404C453.045 700.065 500.351 701.369 544.069 687.096C557.866 682.662 600.861 663.924 607.205 651.528C613.02 650.48 623.938 639.394 627.061 634.549C631.535 633.439 640.254 622.838 643.195 619.259C664.428 593.151 679.64 562.672 687.73 530.004C699.801 480.824 701.504 480.488 679.069 435.096C673.336 423.448 668.213 416.256 661.576 405.402Z" fill="#9E180B"/>
<path d="M522.882 305C635.454 305 726.763 396.478 726.763 509.385C726.763 622.291 635.454 713.769 522.882 713.77C410.31 713.77 319 622.292 319 509.385C319 396.478 410.31 305 522.882 305Z" fill="white" stroke="#D5D5D5" stroke-width="26"/>
<path d="M600.22 338.39C602.568 339.515 608.228 341.989 613.311 344.769C615.856 346.162 618.329 347.668 620.222 349.169C621.168 349.918 622.011 350.699 622.651 351.496C623.279 352.278 623.805 353.192 623.929 354.199L623.993 354.71L623.729 355.151C623.496 355.542 623.374 355.779 623.254 355.998C623.167 356.157 622.963 356.552 622.571 356.846C622.203 357.122 621.777 357.221 621.62 357.263C621.389 357.325 621.108 357.397 620.666 357.54L620.289 357.662L619.899 357.582C617.202 357.022 614.713 355.23 612.541 353.329C611.436 352.362 610.365 351.321 609.352 350.327C608.784 349.77 608.236 349.232 607.706 348.72L604.676 353.102C605.523 353.98 606.544 354.987 607.664 356.133C609.137 357.64 610.727 359.337 612.078 361.09C613.416 362.827 614.598 364.716 615.161 366.618C615.738 368.565 615.69 370.636 614.391 372.486L614.138 372.846L613.732 373.012C611.983 373.727 610.26 373.34 608.775 372.558C607.315 371.788 605.921 370.558 604.652 369.266C603.376 367.968 602.12 366.497 600.987 365.211C600.38 364.522 599.812 363.892 599.282 363.344C597.82 366.234 596.584 368.831 595.263 371.853C597.311 373.701 600.952 376.786 603.794 379.911C605.432 381.714 606.936 383.662 607.804 385.566C608.666 387.458 609.038 389.641 607.799 391.557L607.555 391.931L607.147 392.113C605.325 392.921 603.534 392.774 601.891 392.128C600.297 391.501 598.802 390.391 597.432 389.199C596.064 388.008 594.685 386.61 593.414 385.385C592.69 384.687 591.992 384.04 591.317 383.47C590.102 387.256 589.257 390.26 588.335 394.276C590.529 396.126 593.174 398.205 595.793 400.285C598.668 402.568 601.517 404.86 603.588 406.784L604.176 407.33L604.047 408.122C603.748 409.971 603.689 412.374 601.933 414.371L601.665 414.675L601.281 414.803C599.674 415.339 598 415.054 596.477 414.475C594.948 413.893 593.404 412.949 591.95 411.924C590.49 410.895 589.046 409.732 587.738 408.681C587.155 408.213 586.602 407.772 586.083 407.368C585.23 411.865 584.762 415.288 584.63 420.095L584.67 420.125C586.075 421.157 587.898 422.179 589.904 423.299C591.87 424.398 593.995 425.582 595.851 426.887C597.696 428.184 599.412 429.694 600.464 431.507C601.558 433.393 601.9 435.557 601.054 437.953L600.909 438.363L600.568 438.631C599.112 439.778 597.302 439.837 595.65 439.512C593.989 439.185 592.218 438.422 590.541 437.559C588.851 436.689 587.154 435.661 585.65 434.756C585.011 434.371 584.414 434.016 583.865 433.697C583.731 438.695 583.826 442.758 584.407 447.908C587.287 448.893 592.207 450.321 596.088 452.301C598.263 453.41 600.336 454.793 601.663 456.552C603.055 458.398 603.605 460.646 602.674 463.179L602.532 463.565L602.214 463.824C600.82 464.96 599.064 465.239 597.366 465.137C595.665 465.035 593.84 464.542 592.094 463.923C590.336 463.3 588.577 462.519 587.001 461.794C586.439 461.535 585.905 461.287 585.404 461.054C586.141 465.856 586.877 470.582 587.816 475.326C591.105 476.22 594.553 477.096 597.851 478.108C599.277 478.545 600.532 478.823 601.833 479.174C603.063 479.506 604.313 479.899 605.369 480.547C606.478 481.228 607.371 482.188 607.877 483.589C608.364 484.937 608.451 486.577 608.207 488.569L608.153 489.007L607.871 489.347C606.719 490.731 604.992 491.17 603.345 491.229C601.681 491.288 599.811 490.973 598.001 490.547C596.181 490.117 594.311 489.547 592.654 489.053C591.97 488.848 591.329 488.662 590.738 488.497C591.963 493.497 593.189 497.981 594.992 502.913C596.571 503.1 598.442 503.231 600.495 503.413C602.897 503.625 605.492 503.906 607.876 504.439C610.238 504.967 612.547 505.775 614.275 507.14C616.077 508.564 617.206 510.568 617.141 513.236L617.131 513.646L616.914 513.995C615.905 515.611 614.269 516.417 612.557 516.78C610.859 517.139 608.932 517.098 607.059 516.902C605.172 516.704 603.239 516.337 601.505 515.984C600.861 515.853 600.251 515.726 599.68 515.61C601.604 520.286 603.716 524.887 606 529.4C608.802 529.489 611.74 529.489 614.707 529.493C617.974 529.498 621.275 529.51 624.397 529.665L624.397 529.665C625.343 529.711 626.064 530.282 626.519 530.75C627.009 531.255 627.428 531.887 627.768 532.503C628.439 533.717 628.966 535.171 629.114 536.149L629.168 536.499L629.059 536.836C628.442 538.745 626.972 539.909 625.305 540.598C623.666 541.276 621.703 541.558 619.773 541.665C617.825 541.774 615.792 541.709 613.974 541.632C613.269 541.602 612.605 541.573 611.988 541.547C614.725 546.089 617.234 550.097 620.299 554.566C625.084 553.808 629.934 552.88 634.711 551.925C637.292 551.408 639.863 552.243 641.496 553.982C643.18 555.774 643.773 558.429 642.521 561.193L642.378 561.508L642.111 561.73C639.928 563.534 636.896 564.187 634.016 564.593C631.8 564.905 629.675 565.078 627.657 565.393C630.535 569.33 633.782 573.204 637.022 576.877C639.92 576.082 642.804 575.253 645.727 574.444L645.727 574.444C647.089 574.068 648.326 573.603 649.654 573.165C650.918 572.748 652.261 572.359 653.568 572.299C654.929 572.237 656.299 572.529 657.537 573.498C658.732 574.435 659.66 575.892 660.405 577.874L660.528 578.202L660.493 578.551C660.306 580.422 659.267 581.812 657.93 582.825C656.624 583.814 654.96 584.505 653.292 585.038C651.611 585.575 649.804 585.986 648.17 586.358C647.438 586.525 646.747 586.683 646.108 586.84C649.537 590.645 652.717 593.189 656.652 596.983C659.189 595.69 661.701 594.498 664.185 593.327C666.991 592.005 669.756 590.713 672.521 589.316L673.253 588.947L673.959 589.364C675.619 590.343 676.885 591.311 677.767 592.29C678.654 593.275 679.217 594.345 679.308 595.499C679.492 597.845 677.708 599.551 675.993 600.709C674.178 601.936 671.795 602.981 669.613 603.888C668.352 604.412 667.171 604.886 666.14 605.329C669.638 607.997 673.178 610.61 676.757 613.172C678.642 611.941 680.794 610.512 682.755 609.454L686.035 607.686L684.895 611.234C684.065 613.816 681.916 618.118 679.411 622.028C678.15 623.995 676.773 625.905 675.39 627.481C674.035 629.025 672.566 630.373 671.105 631.06L668.687 632.198L668.976 629.542C669.217 627.306 669.735 624.641 670.151 622.373C666.269 619.701 662.402 617.01 658.548 614.301C658.409 615.019 658.271 615.801 658.121 616.634C657.814 618.345 657.466 620.231 656.979 621.987C656.495 623.73 655.844 625.467 654.872 626.833C653.876 628.232 652.476 629.325 650.555 629.521L650.238 629.553L649.936 629.454C647.283 628.585 646.079 626.969 644.534 625.407L643.933 624.799L644.15 623.971C645.713 618.019 647.127 611.434 648.546 605.287L637.175 594.754C636.991 595.417 636.797 596.135 636.585 596.898C636.113 598.598 635.565 600.471 634.878 602.213C634.196 603.942 633.339 605.645 632.204 606.952C631.048 608.282 629.525 609.282 627.575 609.358L627.243 609.371L626.936 609.242C625.62 608.689 624.748 608.103 623.97 607.332C623.277 606.645 622.619 605.754 621.864 604.841L621.318 604.18L621.61 603.373C623.864 597.17 626.027 590.928 628.09 584.657C626.222 582.43 624.513 580.22 622.799 578.044C621.326 576.176 619.839 574.323 618.211 572.461C617.87 573.156 617.519 573.919 617.149 574.729C616.436 576.287 615.66 578.002 614.792 579.568C613.927 581.126 612.915 582.644 611.682 583.771C610.425 584.92 608.869 585.725 606.989 585.669L606.67 585.659L606.382 585.52C603.878 584.312 602.871 582.412 601.627 580.692L601.17 580.059L601.426 579.322C602.044 577.538 603.859 573.74 605.701 569.97C607.378 566.536 609.107 563.062 610.143 560.857C607.305 556.265 604.501 551.648 601.733 547.013C601.371 547.644 600.995 548.326 600.602 549.047C599.761 550.588 598.843 552.282 597.835 553.808C596.831 555.326 595.671 556.786 594.295 557.813C592.885 558.865 591.198 559.495 589.253 559.215L588.926 559.167L588.65 558.988C586.179 557.382 585.274 555.2 584.11 553.196L583.701 552.491L584.068 551.765C585.034 549.857 587.309 546.352 589.611 542.885C591.694 539.75 593.826 536.604 595.206 534.472C593.175 530.655 590.55 524.391 588.654 519.922C587.978 520.769 587.21 521.773 586.356 522.86C584.838 524.791 583.09 526.924 581.337 528.471C580.46 529.246 579.519 529.932 578.544 530.364C577.563 530.799 576.437 531.023 575.295 530.686C574.142 530.345 573.239 529.512 572.553 528.371C571.875 527.245 571.353 525.735 570.961 523.834L570.905 523.561L570.951 523.285C571.056 522.65 571.365 521.98 571.702 521.371C572.058 520.731 572.523 520.022 573.05 519.281C574.107 517.799 575.482 516.098 576.907 514.415C578.335 512.728 579.835 511.036 581.145 509.567C582.157 508.433 583.045 507.444 583.714 506.684C582.127 501.706 580.609 496.177 579.157 491.074C578.688 491.55 578.184 492.071 577.646 492.625C576.395 493.912 574.989 495.335 573.523 496.582C572.069 497.819 570.473 498.956 568.825 499.606C567.152 500.266 565.301 500.466 563.511 499.614L563.195 499.464L562.977 499.187C561.182 496.906 560.888 494.478 561.615 492.147C562.309 489.927 563.9 487.875 565.699 486.07C567.517 484.245 569.674 482.548 571.664 481.062C573.343 479.807 574.851 478.735 576.039 477.812C575.132 473.606 574.291 466.949 573.587 462.125C573.022 462.561 572.369 463.062 571.655 463.587C569.686 465.032 567.2 466.717 564.813 467.849C563.621 468.415 562.391 468.873 561.219 469.074C560.059 469.273 558.795 469.246 557.686 468.64C556.527 468.006 555.805 466.889 555.471 465.47C555.147 464.089 555.165 462.345 555.499 460.221L555.499 460.218C555.576 459.738 555.831 459.368 555.983 459.17C556.163 458.934 556.385 458.706 556.611 458.494C557.065 458.068 557.667 457.59 558.344 457.094C559.707 456.094 561.511 454.913 563.381 453.738C566.586 451.725 570.212 449.585 572.132 448.426C571.942 443.498 571.957 437.986 571.922 432.949C571.318 433.293 570.622 433.686 569.864 434.095C567.733 435.246 565.058 436.573 562.544 437.385C561.288 437.791 560.009 438.09 558.821 438.151C557.648 438.211 556.403 438.048 555.37 437.356C554.28 436.625 553.662 435.467 553.479 434.04C553.303 432.661 553.519 430.979 554.09 428.979C554.224 428.509 554.523 428.173 554.703 427.991C554.913 427.777 555.163 427.577 555.415 427.397C555.922 427.033 556.582 426.643 557.316 426.245C558.795 425.444 560.736 424.526 562.748 423.621C564.766 422.713 566.884 421.803 568.726 421.015C570.155 420.404 571.404 419.871 572.321 419.466C573.052 414.974 573.64 410.14 574.239 405.495C573.55 405.723 572.795 405.98 571.983 406.254C570.256 406.836 568.32 407.466 566.424 407.898C564.546 408.327 562.585 408.591 560.83 408.363C559.034 408.13 557.325 407.355 556.26 405.613L556.071 405.304L556.044 404.942C555.966 403.909 555.894 402.324 556.171 400.856C556.435 399.454 557.129 397.627 559.024 396.957C564.519 395.014 570.91 393.603 576.476 392.15C577.488 388.097 578.678 383.926 579.808 379.898C579.098 380.022 578.324 380.172 577.492 380.334C575.758 380.672 573.819 381.05 571.943 381.241C570.081 381.431 568.149 381.454 566.445 381.009C564.694 380.552 563.113 379.578 562.171 377.769L562.011 377.464L562.001 377.121C561.946 375.267 562.144 373.744 562.679 372.526C563.24 371.25 564.13 370.401 565.239 369.867C566.287 369.363 567.486 369.16 568.661 369.042C569.787 368.929 571.225 368.872 572.501 368.772C576.306 368.473 580.074 368.051 583.872 367.568C585.175 364.522 586.522 361.619 587.918 358.663C585.878 358.442 583.765 358.39 581.605 358.3C578.814 358.183 575.926 358.002 573.371 357.19L573.051 357.089L572.806 356.862C572.205 356.306 571.641 355.82 571.291 355.194C570.948 354.582 570.819 353.846 570.647 353.058L570.569 352.7L570.664 352.346C571.302 349.987 572.906 348.521 574.897 347.698C576.823 346.902 579.14 346.687 581.43 346.722C583.741 346.757 586.166 347.051 588.37 347.369C590.231 347.637 591.88 347.913 593.265 348.092C594.939 345.84 595.749 344.652 597.219 341.975L598.154 339.255L598.702 337.662L600.22 338.39Z" fill="#C8392B" stroke="#C8392B" stroke-width="3"/>
<path d="M370.961 390.412C369.464 392.599 365.734 397.66 362.67 402.696C361.135 405.219 359.723 407.804 358.819 410.088C358.367 411.23 358.021 412.344 357.863 413.37C357.709 414.376 357.71 415.444 358.11 416.389L358.311 416.863L358.76 417.114C359.165 417.34 359.393 417.487 359.61 417.619C359.769 417.715 360.145 417.955 360.633 418.014C361.093 418.069 361.514 417.942 361.674 417.899C361.909 417.836 362.194 417.757 362.657 417.658L363.045 417.575L363.342 417.31C365.429 415.449 366.709 412.609 367.656 409.828C368.138 408.413 368.553 406.951 368.94 405.56C369.16 404.769 369.372 404.005 369.582 403.275L374.53 405.619C374.23 406.829 373.84 408.244 373.434 409.832C372.903 411.911 372.366 414.214 372.067 416.446C371.771 418.657 371.692 420.92 372.162 422.878C372.643 424.883 373.736 426.677 375.813 427.642L376.212 427.827L376.648 427.767C378.542 427.508 379.858 426.298 380.766 424.857C381.66 423.438 382.261 421.648 382.722 419.864C383.186 418.071 383.544 416.136 383.888 414.425C384.076 413.494 384.258 412.637 384.45 411.874C387.228 413.689 389.652 415.357 392.372 417.363C391.509 420.033 389.865 424.613 388.948 428.823C388.421 431.245 388.087 433.725 388.291 435.842C388.494 437.945 389.276 440.046 391.331 441.097L391.729 441.301L392.173 441.254C394.182 441.04 395.681 440.003 396.797 438.602C397.88 437.241 398.632 435.505 399.232 433.758C399.832 432.012 400.335 430.08 400.832 428.353C401.12 427.354 401.409 426.415 401.72 425.558C404.738 428.293 407.02 430.518 409.891 433.606C408.898 436.358 407.621 439.543 406.369 442.716C404.997 446.192 403.652 449.661 402.806 452.409L402.57 453.176L403.078 453.799C404.286 455.279 405.555 457.359 408.11 458.222L408.493 458.352L408.89 458.271C410.571 457.927 411.897 456.829 412.942 455.546C413.992 454.257 414.871 452.642 415.631 450.999C416.394 449.35 417.074 447.59 417.693 445.998C417.975 445.273 418.243 444.589 418.501 443.957C421.56 447.506 423.723 450.292 426.298 454.484L426.271 454.545L425.987 455.165C425.284 456.632 424.321 458.252 423.272 460.009C422.098 461.979 420.827 464.104 419.856 466.198C418.892 468.279 418.149 470.479 418.144 472.606C418.14 474.818 418.937 476.893 420.896 478.568L421.226 478.851L421.656 478.912C423.512 479.182 425.13 478.318 426.418 477.193C427.713 476.061 428.883 474.49 429.922 472.876C430.968 471.25 431.942 469.481 432.807 467.917C433.183 467.238 433.535 466.607 433.864 466.036C436.541 470.396 438.533 474.038 440.652 478.897C438.615 481.231 434.999 484.998 432.581 488.725C431.23 490.808 430.107 493.078 429.833 495.298C429.546 497.626 430.204 499.879 432.306 501.631L432.622 501.893L433.027 501.96C434.825 502.251 436.508 501.606 437.949 500.654C439.394 499.7 440.75 498.339 441.974 496.905C443.205 495.463 444.358 493.879 445.378 492.439C445.753 491.909 446.107 491.404 446.439 490.931C448.242 495.561 450.006 500.122 451.6 504.804C449.152 507.271 446.554 509.801 444.159 512.375C443.124 513.486 442.157 514.372 441.19 515.343C440.275 516.261 439.375 517.241 438.777 518.346C438.148 519.506 437.85 520.801 438.116 522.286C438.371 523.717 439.127 525.203 440.355 526.833L440.62 527.186L441.035 527.339C442.745 527.968 444.482 527.48 445.961 526.695C447.454 525.902 448.941 524.674 450.318 523.378C451.704 522.074 453.062 520.621 454.271 519.341C454.782 518.8 455.263 518.298 455.71 517.843C457.182 522.897 458.39 527.491 459.314 532.78C458.013 533.751 456.425 534.822 454.702 536.031C452.693 537.44 450.549 539.008 448.721 540.69C446.909 542.357 445.288 544.241 444.462 546.318C443.6 548.484 443.626 550.816 445.036 553.127L445.249 553.478L445.611 553.67C447.315 554.577 449.159 554.457 450.848 553.906C452.524 553.36 454.2 552.345 455.75 551.22C457.312 550.086 458.828 548.778 460.177 547.585C460.692 547.129 461.178 546.696 461.633 546.293C462.322 551.417 462.803 556.57 463.088 561.734C460.659 563.242 458.064 564.739 455.446 566.256C452.569 567.923 449.667 569.614 446.995 571.339L446.994 571.339C446.191 571.856 445.847 572.718 445.685 573.361C445.511 574.051 445.464 574.82 445.477 575.534C445.504 576.943 445.779 578.49 446.144 579.424L446.273 579.753L446.536 579.99C448.043 581.353 449.923 581.63 451.738 581.39C453.524 581.154 455.395 580.405 457.15 579.518C458.921 578.623 460.679 577.533 462.243 576.539C462.865 576.144 463.449 575.77 463.992 575.426C463.891 580.849 463.719 585.676 463.29 591.201C458.68 592.971 453.926 594.623 449.223 596.214L449.224 596.214C446.694 597.069 444.86 599.107 444.307 601.462C443.737 603.888 444.561 606.519 447.063 608.312L447.345 608.514L447.687 608.572C450.521 609.05 453.519 608.086 456.264 606.978C458.39 606.12 460.365 605.182 462.32 604.429C461.786 609.385 460.891 614.476 459.901 619.383C456.935 620.159 453.966 620.897 450.973 621.672L450.971 621.673C449.578 622.035 448.25 622.255 446.857 622.545C445.532 622.821 444.153 623.16 442.975 623.77C441.747 624.405 440.692 625.357 440.097 626.834C439.523 628.262 439.447 630.014 439.799 632.137L439.856 632.482L440.06 632.766C441.172 634.313 442.788 635.007 444.476 635.219C446.127 635.426 447.942 635.19 449.683 634.81C451.436 634.428 453.238 633.872 454.868 633.367C455.615 633.137 456.319 632.92 456.975 632.729C455.886 637.858 454.368 641.732 452.825 647.102C449.925 647.253 447.098 647.482 444.306 647.715C441.161 647.977 438.065 648.245 434.916 648.421L434.098 648.468L433.694 649.181C432.73 650.888 432.108 652.383 431.83 653.692C431.55 655.007 431.598 656.231 432.103 657.288C433.127 659.435 435.553 660.03 437.653 660.178C439.874 660.335 442.505 660.045 444.89 659.733C446.287 659.551 447.585 659.365 448.732 659.23C446.998 663.383 445.199 667.508 443.339 671.607C441.047 671.482 438.416 671.316 436.144 671.382L432.418 671.491L435.18 673.993C437.223 675.845 441.304 678.541 445.502 680.712C447.613 681.804 449.799 682.787 451.818 683.472C453.797 684.143 455.774 684.583 457.406 684.446L460.069 684.223L458.492 682.066C457.138 680.215 455.32 678.124 453.796 676.332C455.867 671.984 457.914 667.626 459.941 663.258C460.437 663.83 460.967 664.46 461.533 665.13C462.674 666.482 463.939 667.966 465.262 669.266C466.574 670.554 468.031 671.752 469.579 672.459C471.164 673.184 472.946 673.433 474.73 672.632L475.02 672.502L475.232 672.265C477.123 670.155 477.361 668.125 477.929 665.959L478.146 665.131L477.543 664.523C473.132 660.068 468.53 654.977 464.148 650.277L468.827 635.149C469.336 635.648 469.883 636.192 470.47 636.768C471.751 638.027 473.187 639.398 474.678 640.584C476.158 641.76 477.779 642.824 479.441 643.396C481.132 643.978 482.974 644.083 484.723 643.163L485.018 643.008L485.219 642.743C486.096 641.588 486.565 640.63 486.857 639.559C487.118 638.602 487.244 637.484 487.445 636.293L487.589 635.447L486.931 634.895C481.783 630.571 476.696 626.166 471.682 621.684C472.196 618.765 472.577 615.942 472.982 613.147C473.331 610.738 473.702 608.335 474.193 605.85C474.859 606.295 475.567 606.797 476.318 607.331C477.739 608.342 479.295 609.459 480.857 610.396C482.411 611.33 484.073 612.15 485.73 612.516C487.417 612.888 489.191 612.805 490.812 611.803L491.085 611.635L491.264 611.371C492.851 609.039 492.772 606.861 492.993 604.707L493.072 603.93L492.483 603.42C491.032 602.164 487.501 599.74 483.958 597.353C480.725 595.176 477.425 592.989 475.391 591.573C475.556 586.06 475.679 580.543 475.76 575.028C476.413 575.406 477.104 575.825 477.832 576.269C479.359 577.2 481.028 578.225 482.693 579.056C484.349 579.884 486.112 580.578 487.843 580.782C489.616 580.991 491.416 580.689 492.98 579.458L493.24 579.254L493.391 578.959C494.747 576.294 494.435 573.919 494.441 571.555L494.443 570.742L493.762 570.296C491.941 569.106 488.154 567.175 484.359 565.291C480.92 563.584 477.432 561.891 475.13 560.713C474.979 556.303 474.1 549.408 473.496 544.495C474.533 544.901 475.735 545.402 477.059 545.932C479.379 546.862 482.004 547.851 484.334 548.323C485.5 548.559 486.677 548.683 487.752 548.569C488.834 548.453 489.934 548.08 490.763 547.208C491.6 546.327 491.971 545.139 491.995 543.789C492.019 542.456 491.712 540.863 491.09 538.988L491.002 538.724L490.825 538.509C490.412 538.006 489.801 537.574 489.194 537.21C488.556 536.827 487.787 536.438 486.945 536.054C485.26 535.286 483.183 534.487 481.071 533.729C478.953 532.969 476.772 532.24 474.87 531.612C473.393 531.125 472.101 530.703 471.122 530.373C469.984 525.158 468.501 519.489 467.18 514.233C467.848 514.418 468.573 514.625 469.346 514.844C471.103 515.343 473.066 515.881 474.991 516.234C476.902 516.585 478.885 516.774 480.664 516.509C482.469 516.24 484.195 515.477 485.334 513.823L485.533 513.534L485.584 513.186C486.004 510.27 485.03 507.988 483.209 506.31C481.472 504.71 479.029 503.713 476.526 503.038C473.997 502.355 471.233 501.957 468.723 501.659C466.598 501.407 464.717 501.229 463.196 501.019C461.853 496.838 459.19 490.507 457.352 485.885C458.082 485.984 458.928 486.095 459.843 486.196C462.314 486.468 465.361 486.688 468.039 486.472C469.376 486.364 470.692 486.141 471.824 485.723C472.946 485.309 474.039 484.646 474.704 483.555C475.399 482.414 475.467 481.07 475.04 479.655C474.625 478.277 473.723 476.752 472.348 475.05L472.347 475.048C472.04 474.669 471.632 474.476 471.398 474.379C471.121 474.263 470.812 474.174 470.505 474.102C469.889 473.958 469.116 473.844 468.267 473.751C466.558 473.563 464.368 473.441 462.121 473.357C458.262 473.213 453.967 473.172 451.688 473.128C449.339 468.67 446.508 463.798 443.966 459.324C444.684 459.32 445.514 459.313 446.409 459.287C448.872 459.217 451.905 459.025 454.532 458.462C455.844 458.181 457.121 457.794 458.196 457.245C459.259 456.703 460.267 455.928 460.822 454.8C461.407 453.609 461.362 452.282 460.8 450.936C460.256 449.636 459.212 448.266 457.692 446.795C457.34 446.454 456.911 446.311 456.661 446.242C456.369 446.161 456.048 446.113 455.735 446.082C455.105 446.02 454.326 446.011 453.477 446.034C451.767 446.08 449.589 446.26 447.355 446.486C445.114 446.713 442.784 446.988 440.759 447.231C439.181 447.421 437.803 447.587 436.787 447.697C433.844 444.095 430.853 440.114 427.95 436.31C428.684 436.157 429.495 435.999 430.367 435.823C432.185 435.457 434.211 435.027 436.101 434.444C437.973 433.866 439.834 433.103 441.261 432.012C442.722 430.895 443.828 429.347 443.88 427.281L443.889 426.919L443.731 426.593C443.273 425.643 442.532 424.212 441.543 423.061C440.598 421.962 439.065 420.713 437.068 421.084L435.913 421.309C430.4 422.432 424.505 424.281 419.225 425.732C416.258 422.661 413.07 419.576 410.011 416.587C410.71 416.33 411.484 416.064 412.315 415.778C414.016 415.194 415.916 414.541 417.666 413.755C419.403 412.975 421.114 412.014 422.387 410.757C423.693 409.468 424.587 407.81 424.498 405.746L424.483 405.402L424.32 405.1C423.426 403.439 422.478 402.202 421.391 401.403C420.252 400.568 419.043 400.274 417.8 400.367C416.624 400.455 415.467 400.885 414.372 401.379C413.322 401.853 412.028 402.534 410.851 403.095L410.85 403.095C407.339 404.771 403.797 406.319 400.197 407.827C397.485 405.794 394.807 403.912 392.058 402.008C393.753 400.765 395.601 399.636 397.469 398.45C399.87 396.927 402.32 395.299 404.157 393.285L404.383 393.039L404.482 392.719C404.73 391.92 404.977 391.211 404.968 390.487C404.958 389.777 404.7 389.068 404.45 388.283L404.338 387.934L404.079 387.675C402.323 385.927 400.171 385.453 398.004 385.74C395.907 386.018 393.759 387.005 391.759 388.201C389.741 389.407 387.754 390.9 385.974 392.302C384.466 393.489 383.146 394.574 382.013 395.44C379.38 394.302 378.06 393.666 375.395 392.05L373.184 390.128L371.913 389.022L370.961 390.412Z" fill="#C8392B" stroke="#C8392B" stroke-width="3"/>
</g>
</g>
<defs>
<linearGradient id="paint0_linear_2028_525" x1="512" y1="0" x2="512" y2="1024" gradientUnits="userSpaceOnUse">
<stop stop-color="#FFFDE8"/>
<stop offset="1" stop-color="#EFEBC6"/>
</linearGradient>
<clipPath id="clip0_2028_525">
<rect width="1024" height="1024" fill="white"/>
</clipPath>
<clipPath id="clip1_2028_525">
<rect width="1024" height="1024" fill="white"/>
</clipPath>
</defs>
</svg>
